<mxfile host="app.diagrams.net" modified="2024-07-11T13:17:59.528Z" agent="Mozilla/5.0 (Macintosh; Intel Mac OS X 10_15_7) AppleWebKit/537.36 (KHTML, like Gecko) Chrome/125.0.0.0 Safari/537.36" etag="Nlv54lVA9dsvtf0SOt-s" version="24.6.4" type="github">
  <diagram name="第 1 页" id="3Z__gNfSFSiVqUQRxiMj">
    <mxGraphModel dx="866" dy="549" grid="1" gridSize="10" guides="1" tooltips="1" connect="1" arrows="1" fold="1" page="1" pageScale="1" pageWidth="827" pageHeight="1169" math="0" shadow="0">
      <root>
        <mxCell id="0" />
        <mxCell id="1" parent="0" />
        <mxCell id="y3La4r9T2wHEWD9HC_on-4" value="" style="rounded=0;whiteSpace=wrap;html=1;" vertex="1" parent="1">
          <mxGeometry x="130" y="150" width="230" height="100" as="geometry" />
        </mxCell>
        <mxCell id="y3La4r9T2wHEWD9HC_on-11" style="edgeStyle=orthogonalEdgeStyle;rounded=0;orthogonalLoop=1;jettySize=auto;html=1;exitX=1;exitY=0.5;exitDx=0;exitDy=0;entryX=0;entryY=0.5;entryDx=0;entryDy=0;" edge="1" parent="1" source="y3La4r9T2wHEWD9HC_on-5" target="y3La4r9T2wHEWD9HC_on-9">
          <mxGeometry relative="1" as="geometry" />
        </mxCell>
        <mxCell id="y3La4r9T2wHEWD9HC_on-5" value="线程A" style="rounded=0;whiteSpace=wrap;html=1;" vertex="1" parent="1">
          <mxGeometry x="140" y="185" width="60" height="30" as="geometry" />
        </mxCell>
        <mxCell id="y3La4r9T2wHEWD9HC_on-10" value="" style="group" vertex="1" connectable="0" parent="1">
          <mxGeometry x="250" y="160" width="100" height="80" as="geometry" />
        </mxCell>
        <mxCell id="y3La4r9T2wHEWD9HC_on-9" value="" style="rounded=1;whiteSpace=wrap;html=1;" vertex="1" parent="y3La4r9T2wHEWD9HC_on-10">
          <mxGeometry width="100" height="80" as="geometry" />
        </mxCell>
        <mxCell id="y3La4r9T2wHEWD9HC_on-7" value="共享变量副本" style="rounded=0;whiteSpace=wrap;html=1;" vertex="1" parent="y3La4r9T2wHEWD9HC_on-10">
          <mxGeometry x="10" y="35" width="80" height="30" as="geometry" />
        </mxCell>
        <mxCell id="y3La4r9T2wHEWD9HC_on-8" value="工作内存" style="text;html=1;align=center;verticalAlign=middle;whiteSpace=wrap;rounded=0;" vertex="1" parent="y3La4r9T2wHEWD9HC_on-10">
          <mxGeometry x="20" y="5" width="60" height="30" as="geometry" />
        </mxCell>
        <mxCell id="y3La4r9T2wHEWD9HC_on-12" style="edgeStyle=orthogonalEdgeStyle;rounded=0;orthogonalLoop=1;jettySize=auto;html=1;exitX=0;exitY=0.5;exitDx=0;exitDy=0;entryX=1;entryY=0.5;entryDx=0;entryDy=0;" edge="1" parent="1" source="y3La4r9T2wHEWD9HC_on-9" target="y3La4r9T2wHEWD9HC_on-5">
          <mxGeometry relative="1" as="geometry" />
        </mxCell>
        <mxCell id="y3La4r9T2wHEWD9HC_on-13" value="" style="rounded=0;whiteSpace=wrap;html=1;" vertex="1" parent="1">
          <mxGeometry x="130" y="280" width="230" height="100" as="geometry" />
        </mxCell>
        <mxCell id="y3La4r9T2wHEWD9HC_on-14" style="edgeStyle=orthogonalEdgeStyle;rounded=0;orthogonalLoop=1;jettySize=auto;html=1;exitX=1;exitY=0.5;exitDx=0;exitDy=0;entryX=0;entryY=0.5;entryDx=0;entryDy=0;" edge="1" parent="1" source="y3La4r9T2wHEWD9HC_on-15" target="y3La4r9T2wHEWD9HC_on-17">
          <mxGeometry relative="1" as="geometry" />
        </mxCell>
        <mxCell id="y3La4r9T2wHEWD9HC_on-15" value="线程B" style="rounded=0;whiteSpace=wrap;html=1;" vertex="1" parent="1">
          <mxGeometry x="140" y="315" width="60" height="30" as="geometry" />
        </mxCell>
        <mxCell id="y3La4r9T2wHEWD9HC_on-16" value="" style="group" vertex="1" connectable="0" parent="1">
          <mxGeometry x="250" y="290" width="100" height="80" as="geometry" />
        </mxCell>
        <mxCell id="y3La4r9T2wHEWD9HC_on-17" value="" style="rounded=1;whiteSpace=wrap;html=1;" vertex="1" parent="y3La4r9T2wHEWD9HC_on-16">
          <mxGeometry width="100" height="80" as="geometry" />
        </mxCell>
        <mxCell id="y3La4r9T2wHEWD9HC_on-18" value="共享变量副本" style="rounded=0;whiteSpace=wrap;html=1;" vertex="1" parent="y3La4r9T2wHEWD9HC_on-16">
          <mxGeometry x="10" y="35" width="80" height="30" as="geometry" />
        </mxCell>
        <mxCell id="y3La4r9T2wHEWD9HC_on-19" value="工作内存" style="text;html=1;align=center;verticalAlign=middle;whiteSpace=wrap;rounded=0;" vertex="1" parent="y3La4r9T2wHEWD9HC_on-16">
          <mxGeometry x="20" y="5" width="60" height="30" as="geometry" />
        </mxCell>
        <mxCell id="y3La4r9T2wHEWD9HC_on-20" style="edgeStyle=orthogonalEdgeStyle;rounded=0;orthogonalLoop=1;jettySize=auto;html=1;exitX=0;exitY=0.5;exitDx=0;exitDy=0;entryX=1;entryY=0.5;entryDx=0;entryDy=0;" edge="1" parent="1" source="y3La4r9T2wHEWD9HC_on-17" target="y3La4r9T2wHEWD9HC_on-15">
          <mxGeometry relative="1" as="geometry" />
        </mxCell>
        <mxCell id="y3La4r9T2wHEWD9HC_on-21" value="" style="rounded=0;whiteSpace=wrap;html=1;" vertex="1" parent="1">
          <mxGeometry x="540" y="150" width="120" height="240" as="geometry" />
        </mxCell>
        <mxCell id="y3La4r9T2wHEWD9HC_on-22" value="主内存" style="text;html=1;align=center;verticalAlign=middle;whiteSpace=wrap;rounded=0;" vertex="1" parent="1">
          <mxGeometry x="570" y="150" width="60" height="30" as="geometry" />
        </mxCell>
        <mxCell id="y3La4r9T2wHEWD9HC_on-24" value="共享变量" style="rounded=1;whiteSpace=wrap;html=1;" vertex="1" parent="1">
          <mxGeometry x="570" y="184" width="60" height="30" as="geometry" />
        </mxCell>
        <mxCell id="y3La4r9T2wHEWD9HC_on-25" value="共享变量" style="rounded=1;whiteSpace=wrap;html=1;" vertex="1" parent="1">
          <mxGeometry x="570" y="260" width="60" height="30" as="geometry" />
        </mxCell>
        <mxCell id="y3La4r9T2wHEWD9HC_on-26" value="共享变量" style="rounded=1;whiteSpace=wrap;html=1;" vertex="1" parent="1">
          <mxGeometry x="570" y="220" width="60" height="30" as="geometry" />
        </mxCell>
        <mxCell id="y3La4r9T2wHEWD9HC_on-27" value="共享变量" style="rounded=1;whiteSpace=wrap;html=1;" vertex="1" parent="1">
          <mxGeometry x="570" y="260" width="60" height="30" as="geometry" />
        </mxCell>
        <mxCell id="y3La4r9T2wHEWD9HC_on-28" value="共享变量" style="rounded=1;whiteSpace=wrap;html=1;" vertex="1" parent="1">
          <mxGeometry x="570" y="300" width="60" height="30" as="geometry" />
        </mxCell>
        <mxCell id="y3La4r9T2wHEWD9HC_on-29" value="共享变量" style="rounded=1;whiteSpace=wrap;html=1;" vertex="1" parent="1">
          <mxGeometry x="570" y="340" width="60" height="30" as="geometry" />
        </mxCell>
        <mxCell id="y3La4r9T2wHEWD9HC_on-30" value="" style="shape=flexArrow;endArrow=classic;startArrow=classic;html=1;rounded=0;exitX=1;exitY=0.5;exitDx=0;exitDy=0;entryX=-0.017;entryY=0.204;entryDx=0;entryDy=0;entryPerimeter=0;width=20;" edge="1" parent="1" source="y3La4r9T2wHEWD9HC_on-4" target="y3La4r9T2wHEWD9HC_on-21">
          <mxGeometry width="100" height="100" relative="1" as="geometry">
            <mxPoint x="414" y="250" as="sourcePoint" />
            <mxPoint x="514" y="150" as="targetPoint" />
          </mxGeometry>
        </mxCell>
        <mxCell id="y3La4r9T2wHEWD9HC_on-32" value="JMM控制save/lode" style="edgeLabel;html=1;align=center;verticalAlign=middle;resizable=0;points=[];" vertex="1" connectable="0" parent="y3La4r9T2wHEWD9HC_on-30">
          <mxGeometry x="-0.2133" y="1" relative="1" as="geometry">
            <mxPoint x="19" as="offset" />
          </mxGeometry>
        </mxCell>
        <mxCell id="y3La4r9T2wHEWD9HC_on-34" value="" style="shape=flexArrow;endArrow=classic;startArrow=classic;html=1;rounded=0;exitX=1;exitY=0.5;exitDx=0;exitDy=0;entryX=-0.017;entryY=0.204;entryDx=0;entryDy=0;entryPerimeter=0;width=20;" edge="1" parent="1">
          <mxGeometry width="100" height="100" relative="1" as="geometry">
            <mxPoint x="360" y="330" as="sourcePoint" />
            <mxPoint x="538" y="329" as="targetPoint" />
          </mxGeometry>
        </mxCell>
        <mxCell id="y3La4r9T2wHEWD9HC_on-35" value="JMM控制save/lode" style="edgeLabel;html=1;align=center;verticalAlign=middle;resizable=0;points=[];" vertex="1" connectable="0" parent="y3La4r9T2wHEWD9HC_on-34">
          <mxGeometry x="-0.2133" y="1" relative="1" as="geometry">
            <mxPoint x="19" as="offset" />
          </mxGeometry>
        </mxCell>
      </root>
    </mxGraphModel>
  </diagram>
</mxfile>
